<svg height="6334" width="720" xmlns="http://www.w3.org/2000/svg">
<rect height="6334" fill="#555" width="720"></rect>
<text fill="#7f7" font-family="Courier New" font-size="12" xml:space="preserve">
<tspan x="10" y="26">30 megabytes installed</tspan>
<tspan x="10" y="42"></tspan>
<tspan x="10" y="58">node_modules</tspan>
<tspan x="10" y="74">└─┬ grunt-pagespeed@2.0.1 </tspan>
<tspan x="10" y="90">  └─┬ psi@2.0.4 </tspan>
<tspan x="10" y="106">    ├─┬ chalk@1.1.3 </tspan>
<tspan x="10" y="122">    │ ├── ansi-styles@2.2.1 </tspan>
<tspan x="10" y="138">    │ ├── escape-string-regexp@1.0.5 </tspan>
<tspan x="10" y="154">    │ ├─┬ has-ansi@2.0.0 </tspan>
<tspan x="10" y="170">    │ │ └── ansi-regex@2.1.1 </tspan>
<tspan x="10" y="186">    │ ├── strip-ansi@3.0.1 </tspan>
<tspan x="10" y="202">    │ └── supports-color@2.0.0 </tspan>
<tspan x="10" y="218">    ├─┬ download@4.4.3 </tspan>
<tspan x="10" y="234">    │ ├─┬ caw@1.2.0 </tspan>
<tspan x="10" y="250">    │ │ ├─┬ get-proxy@1.1.0 </tspan>
<tspan x="10" y="266">    │ │ │ └─┬ rc@1.2.1 </tspan>
<tspan x="10" y="282">    │ │ │   ├── deep-extend@0.4.1 </tspan>
<tspan x="10" y="298">    │ │ │   ├── ini@1.3.4 </tspan>
<tspan x="10" y="314">    │ │ │   └── strip-json-comments@2.0.1 </tspan>
<tspan x="10" y="330">    │ │ ├── is-obj@1.0.1 </tspan>
<tspan x="10" y="346">    │ │ ├── object-assign@3.0.0 </tspan>
<tspan x="10" y="362">    │ │ └── tunnel-agent@0.4.3 </tspan>
<tspan x="10" y="378">    │ ├─┬ concat-stream@1.6.0 </tspan>
<tspan x="10" y="394">    │ │ ├── inherits@2.0.3 </tspan>
<tspan x="10" y="410">    │ │ └── typedarray@0.0.6 </tspan>
<tspan x="10" y="426">    │ ├─┬ each-async@1.1.1 </tspan>
<tspan x="10" y="442">    │ │ ├── onetime@1.1.0 </tspan>
<tspan x="10" y="458">    │ │ └── set-immediate-shim@1.0.1 </tspan>
<tspan x="10" y="474">    │ ├─┬ filenamify@1.2.1 </tspan>
<tspan x="10" y="490">    │ │ ├── filename-reserved-regex@1.0.0 </tspan>
<tspan x="10" y="506">    │ │ ├── strip-outer@1.0.0 </tspan>
<tspan x="10" y="522">    │ │ └── trim-repeated@1.0.0 </tspan>
<tspan x="10" y="538">    │ ├─┬ got@5.7.1 </tspan>
<tspan x="10" y="554">    │ │ ├─┬ create-error-class@3.0.2 </tspan>
<tspan x="10" y="570">    │ │ │ └── capture-stack-trace@1.0.0 </tspan>
<tspan x="10" y="586">    │ │ ├── duplexer2@0.1.4 </tspan>
<tspan x="10" y="602">    │ │ ├── is-redirect@1.0.0 </tspan>
<tspan x="10" y="618">    │ │ ├── is-retry-allowed@1.1.0 </tspan>
<tspan x="10" y="634">    │ │ ├── is-stream@1.1.0 </tspan>
<tspan x="10" y="650">    │ │ ├── lowercase-keys@1.0.0 </tspan>
<tspan x="10" y="666">    │ │ ├── node-status-codes@1.0.0 </tspan>
<tspan x="10" y="682">    │ │ ├─┬ parse-json@2.2.0 </tspan>
<tspan x="10" y="698">    │ │ │ └─┬ error-ex@1.3.1 </tspan>
<tspan x="10" y="714">    │ │ │   └── is-arrayish@0.2.1 </tspan>
<tspan x="10" y="730">    │ │ ├── timed-out@3.1.3 </tspan>
<tspan x="10" y="746">    │ │ ├── unzip-response@1.0.2 </tspan>
<tspan x="10" y="762">    │ │ └── url-parse-lax@1.0.0 </tspan>
<tspan x="10" y="778">    │ ├─┬ gulp-decompress@1.2.0 </tspan>
<tspan x="10" y="794">    │ │ ├─┬ archive-type@3.2.0 </tspan>
<tspan x="10" y="810">    │ │ │ └── file-type@3.9.0 </tspan>
<tspan x="10" y="826">    │ │ ├─┬ decompress@3.0.0 </tspan>
<tspan x="10" y="842">    │ │ │ ├── buffer-to-vinyl@1.1.0 </tspan>
<tspan x="10" y="858">    │ │ │ ├─┬ decompress-tar@3.1.0 </tspan>
<tspan x="10" y="874">    │ │ │ │ ├── is-tar@1.0.0 </tspan>
<tspan x="10" y="890">    │ │ │ │ ├── object-assign@2.1.1 </tspan>
<tspan x="10" y="906">    │ │ │ │ ├─┬ strip-dirs@1.1.1 </tspan>
<tspan x="10" y="922">    │ │ │ │ │ ├─┬ is-absolute@0.1.7 </tspan>
<tspan x="10" y="938">    │ │ │ │ │ │ └── is-relative@0.1.3 </tspan>
<tspan x="10" y="954">    │ │ │ │ │ ├── is-natural-number@2.1.1 </tspan>
<tspan x="10" y="970">    │ │ │ │ │ └── sum-up@1.0.3 </tspan>
<tspan x="10" y="986">    │ │ │ │ ├─┬ tar-stream@1.5.2 </tspan>
<tspan x="10" y="1002">    │ │ │ │ │ ├── bl@1.2.0 </tspan>
<tspan x="10" y="1018">    │ │ │ │ │ └── end-of-stream@1.4.0 </tspan>
<tspan x="10" y="1034">    │ │ │ │ └─┬ vinyl@0.4.6 </tspan>
<tspan x="10" y="1050">    │ │ │ │   └── clone@0.2.0 </tspan>
<tspan x="10" y="1066">    │ │ │ ├─┬ decompress-tarbz2@3.1.0 </tspan>
<tspan x="10" y="1082">    │ │ │ │ ├── is-bzip2@1.0.0 </tspan>
<tspan x="10" y="1098">    │ │ │ │ ├── object-assign@2.1.1 </tspan>
<tspan x="10" y="1114">    │ │ │ │ ├─┬ seek-bzip@1.0.5 </tspan>
<tspan x="10" y="1130">    │ │ │ │ │ └── commander@2.8.1 </tspan>
<tspan x="10" y="1146">    │ │ │ │ └─┬ vinyl@0.4.6 </tspan>
<tspan x="10" y="1162">    │ │ │ │   └── clone@0.2.0 </tspan>
<tspan x="10" y="1178">    │ │ │ ├─┬ decompress-targz@3.1.0 </tspan>
<tspan x="10" y="1194">    │ │ │ │ ├── is-gzip@1.0.0 </tspan>
<tspan x="10" y="1210">    │ │ │ │ ├── object-assign@2.1.1 </tspan>
<tspan x="10" y="1226">    │ │ │ │ └─┬ vinyl@0.4.6 </tspan>
<tspan x="10" y="1242">    │ │ │ │   └── clone@0.2.0 </tspan>
<tspan x="10" y="1258">    │ │ │ ├─┬ decompress-unzip@3.4.0 </tspan>
<tspan x="10" y="1274">    │ │ │ │ ├── is-zip@1.0.0 </tspan>
<tspan x="10" y="1290">    │ │ │ │ ├── stat-mode@0.2.2 </tspan>
<tspan x="10" y="1306">    │ │ │ │ ├── through2@2.0.3 </tspan>
<tspan x="10" y="1322">    │ │ │ │ └─┬ yauzl@2.8.0 </tspan>
<tspan x="10" y="1338">    │ │ │ │   ├── buffer-crc32@0.2.13 </tspan>
<tspan x="10" y="1354">    │ │ │ │   └─┬ fd-slicer@1.0.1 </tspan>
<tspan x="10" y="1370">    │ │ │ │     └── pend@1.2.0 </tspan>
<tspan x="10" y="1386">    │ │ │ └── vinyl-assign@1.2.1 </tspan>
<tspan x="10" y="1402">    │ │ └─┬ gulp-util@3.0.8 </tspan>
<tspan x="10" y="1418">    │ │   ├── array-differ@1.0.0 </tspan>
<tspan x="10" y="1434">    │ │   ├── array-uniq@1.0.3 </tspan>
<tspan x="10" y="1450">    │ │   ├── beeper@1.1.1 </tspan>
<tspan x="10" y="1466">    │ │   ├── dateformat@2.0.0 </tspan>
<tspan x="10" y="1482">    │ │   ├─┬ fancy-log@1.3.0 </tspan>
<tspan x="10" y="1498">    │ │   │ └── time-stamp@1.0.1 </tspan>
<tspan x="10" y="1514">    │ │   ├─┬ gulplog@1.0.0 </tspan>
<tspan x="10" y="1530">    │ │   │ └── glogg@1.0.0 </tspan>
<tspan x="10" y="1546">    │ │   ├─┬ has-gulplog@0.1.0 </tspan>
<tspan x="10" y="1562">    │ │   │ └── sparkles@1.0.0 </tspan>
<tspan x="10" y="1578">    │ │   ├── lodash._reescape@3.0.0 </tspan>
<tspan x="10" y="1594">    │ │   ├── lodash._reevaluate@3.0.0 </tspan>
<tspan x="10" y="1610">    │ │   ├── lodash._reinterpolate@3.0.0 </tspan>
<tspan x="10" y="1626">    │ │   ├─┬ lodash.template@3.6.2 </tspan>
<tspan x="10" y="1642">    │ │   │ ├── lodash._basecopy@3.0.1 </tspan>
<tspan x="10" y="1658">    │ │   │ ├── lodash._basetostring@3.0.1 </tspan>
<tspan x="10" y="1674">    │ │   │ ├── lodash._basevalues@3.0.0 </tspan>
<tspan x="10" y="1690">    │ │   │ ├── lodash._isiterateecall@3.0.9 </tspan>
<tspan x="10" y="1706">    │ │   │ ├─┬ lodash.escape@3.2.0 </tspan>
<tspan x="10" y="1722">    │ │   │ │ └── lodash._root@3.0.1 </tspan>
<tspan x="10" y="1738">    │ │   │ ├─┬ lodash.keys@3.1.2 </tspan>
<tspan x="10" y="1754">    │ │   │ │ ├── lodash._getnative@3.9.1 </tspan>
<tspan x="10" y="1770">    │ │   │ │ ├── lodash.isarguments@3.1.0 </tspan>
<tspan x="10" y="1786">    │ │   │ │ └── lodash.isarray@3.0.4 </tspan>
<tspan x="10" y="1802">    │ │   │ ├── lodash.restparam@3.6.1 </tspan>
<tspan x="10" y="1818">    │ │   │ └── lodash.templatesettings@3.1.1 </tspan>
<tspan x="10" y="1834">    │ │   ├─┬ multipipe@0.1.2 </tspan>
<tspan x="10" y="1850">    │ │   │ └─┬ duplexer2@0.0.2 </tspan>
<tspan x="10" y="1866">    │ │   │   └─┬ readable-stream@1.1.14 </tspan>
<tspan x="10" y="1882">    │ │   │     ├── isarray@0.0.1 </tspan>
<tspan x="10" y="1898">    │ │   │     └── string_decoder@0.10.31 </tspan>
<tspan x="10" y="1914">    │ │   ├── object-assign@3.0.0 </tspan>
<tspan x="10" y="1930">    │ │   ├── through2@2.0.3 </tspan>
<tspan x="10" y="1946">    │ │   └── vinyl@0.5.3 </tspan>
<tspan x="10" y="1962">    │ ├── gulp-rename@1.2.2 </tspan>
<tspan x="10" y="1978">    │ ├── is-url@1.2.2 </tspan>
<tspan x="10" y="1994">    │ ├── read-all-stream@3.1.0 </tspan>
<tspan x="10" y="2010">    │ ├─┬ readable-stream@2.2.9 </tspan>
<tspan x="10" y="2026">    │ │ ├── buffer-shims@1.0.0 </tspan>
<tspan x="10" y="2042">    │ │ ├── core-util-is@1.0.2 </tspan>
<tspan x="10" y="2058">    │ │ ├── isarray@1.0.0 </tspan>
<tspan x="10" y="2074">    │ │ ├── process-nextick-args@1.0.7 </tspan>
<tspan x="10" y="2090">    │ │ ├── string_decoder@1.0.0 </tspan>
<tspan x="10" y="2106">    │ │ └── util-deprecate@1.0.2 </tspan>
<tspan x="10" y="2122">    │ ├── stream-combiner2@1.1.1 </tspan>
<tspan x="10" y="2138">    │ ├─┬ vinyl@1.2.0 </tspan>
<tspan x="10" y="2154">    │ │ ├── clone@1.0.2 </tspan>
<tspan x="10" y="2170">    │ │ ├── clone-stats@0.0.1 </tspan>
<tspan x="10" y="2186">    │ │ └── replace-ext@0.0.1 </tspan>
<tspan x="10" y="2202">    │ ├─┬ vinyl-fs@2.4.4 </tspan>
<tspan x="10" y="2218">    │ │ ├─┬ duplexify@3.5.0 </tspan>
<tspan x="10" y="2234">    │ │ │ ├─┬ end-of-stream@1.0.0 </tspan>
<tspan x="10" y="2250">    │ │ │ │ └─┬ once@1.3.3 </tspan>
<tspan x="10" y="2266">    │ │ │ │   └── wrappy@1.0.2 </tspan>
<tspan x="10" y="2282">    │ │ │ └── stream-shift@1.0.0 </tspan>
<tspan x="10" y="2298">    │ │ ├─┬ glob-stream@5.3.5 </tspan>
<tspan x="10" y="2314">    │ │ │ ├─┬ glob@5.0.15 </tspan>
<tspan x="10" y="2330">    │ │ │ │ ├── inflight@1.0.6 </tspan>
<tspan x="10" y="2346">    │ │ │ │ ├─┬ minimatch@3.0.3 </tspan>
<tspan x="10" y="2362">    │ │ │ │ │ └─┬ brace-expansion@1.1.7 </tspan>
<tspan x="10" y="2378">    │ │ │ │ │   ├── balanced-match@0.4.2 </tspan>
<tspan x="10" y="2394">    │ │ │ │ │   └── concat-map@0.0.1 </tspan>
<tspan x="10" y="2410">    │ │ │ │ ├── once@1.4.0 </tspan>
<tspan x="10" y="2426">    │ │ │ │ └── path-is-absolute@1.0.1 </tspan>
<tspan x="10" y="2442">    │ │ │ ├─┬ glob-parent@3.1.0 </tspan>
<tspan x="10" y="2458">    │ │ │ │ ├─┬ is-glob@3.1.0 </tspan>
<tspan x="10" y="2474">    │ │ │ │ │ └── is-extglob@2.1.1 </tspan>
<tspan x="10" y="2490">    │ │ │ │ └── path-dirname@1.0.2 </tspan>
<tspan x="10" y="2506">    │ │ │ ├─┬ micromatch@2.3.11 </tspan>
<tspan x="10" y="2522">    │ │ │ │ ├─┬ arr-diff@2.0.0 </tspan>
<tspan x="10" y="2538">    │ │ │ │ │ └── arr-flatten@1.0.3 </tspan>
<tspan x="10" y="2554">    │ │ │ │ ├── array-unique@0.2.1 </tspan>
<tspan x="10" y="2570">    │ │ │ │ ├─┬ braces@1.8.5 </tspan>
<tspan x="10" y="2586">    │ │ │ │ │ ├─┬ expand-range@1.8.2 </tspan>
<tspan x="10" y="2602">    │ │ │ │ │ │ └─┬ fill-range@2.2.3 </tspan>
<tspan x="10" y="2618">    │ │ │ │ │ │   ├── is-number@2.1.0 </tspan>
<tspan x="10" y="2634">    │ │ │ │ │ │   ├── isobject@2.1.0 </tspan>
<tspan x="10" y="2650">    │ │ │ │ │ │   ├── randomatic@1.1.6 </tspan>
<tspan x="10" y="2666">    │ │ │ │ │ │   └── repeat-string@1.6.1 </tspan>
<tspan x="10" y="2682">    │ │ │ │ │ ├── preserve@0.2.0 </tspan>
<tspan x="10" y="2698">    │ │ │ │ │ └── repeat-element@1.1.2 </tspan>
<tspan x="10" y="2714">    │ │ │ │ ├─┬ expand-brackets@0.1.5 </tspan>
<tspan x="10" y="2730">    │ │ │ │ │ └── is-posix-bracket@0.1.1 </tspan>
<tspan x="10" y="2746">    │ │ │ │ ├─┬ extglob@0.3.2 </tspan>
<tspan x="10" y="2762">    │ │ │ │ │ └── is-extglob@1.0.0 </tspan>
<tspan x="10" y="2778">    │ │ │ │ ├── filename-regex@2.0.0 </tspan>
<tspan x="10" y="2794">    │ │ │ │ ├── is-extglob@1.0.0 </tspan>
<tspan x="10" y="2810">    │ │ │ │ ├── is-glob@2.0.1 </tspan>
<tspan x="10" y="2826">    │ │ │ │ ├─┬ kind-of@3.1.0 </tspan>
<tspan x="10" y="2842">    │ │ │ │ │ └── is-buffer@1.1.5 </tspan>
<tspan x="10" y="2858">    │ │ │ │ ├─┬ normalize-path@2.1.1 </tspan>
<tspan x="10" y="2874">    │ │ │ │ │ └── remove-trailing-separator@1.0.1 </tspan>
<tspan x="10" y="2890">    │ │ │ │ ├─┬ object.omit@2.0.1 </tspan>
<tspan x="10" y="2906">    │ │ │ │ │ ├─┬ for-own@0.1.5 </tspan>
<tspan x="10" y="2922">    │ │ │ │ │ │ └── for-in@1.0.2 </tspan>
<tspan x="10" y="2938">    │ │ │ │ │ └── is-extendable@0.1.1 </tspan>
<tspan x="10" y="2954">    │ │ │ │ ├─┬ parse-glob@3.0.4 </tspan>
<tspan x="10" y="2970">    │ │ │ │ │ ├─┬ glob-base@0.3.0 </tspan>
<tspan x="10" y="2986">    │ │ │ │ │ │ ├── glob-parent@2.0.0 </tspan>
<tspan x="10" y="3002">    │ │ │ │ │ │ └─┬ is-glob@2.0.1 </tspan>
<tspan x="10" y="3018">    │ │ │ │ │ │   └── is-extglob@1.0.0 </tspan>
<tspan x="10" y="3034">    │ │ │ │ │ ├── is-dotfile@1.0.2 </tspan>
<tspan x="10" y="3050">    │ │ │ │ │ ├── is-extglob@1.0.0 </tspan>
<tspan x="10" y="3066">    │ │ │ │ │ └── is-glob@2.0.1 </tspan>
<tspan x="10" y="3082">    │ │ │ │ └─┬ regex-cache@0.4.3 </tspan>
<tspan x="10" y="3098">    │ │ │ │   ├── is-equal-shallow@0.1.3 </tspan>
<tspan x="10" y="3114">    │ │ │ │   └── is-primitive@2.0.0 </tspan>
<tspan x="10" y="3130">    │ │ │ ├── ordered-read-streams@0.3.0 </tspan>
<tspan x="10" y="3146">    │ │ │ ├─┬ through2@0.6.5 </tspan>
<tspan x="10" y="3162">    │ │ │ │ └─┬ readable-stream@1.0.34 </tspan>
<tspan x="10" y="3178">    │ │ │ │   ├── isarray@0.0.1 </tspan>
<tspan x="10" y="3194">    │ │ │ │   └── string_decoder@0.10.31 </tspan>
<tspan x="10" y="3210">    │ │ │ ├─┬ to-absolute-glob@0.1.1 </tspan>
<tspan x="10" y="3226">    │ │ │ │ └── extend-shallow@2.0.1 </tspan>
<tspan x="10" y="3242">    │ │ │ └─┬ unique-stream@2.2.1 </tspan>
<tspan x="10" y="3258">    │ │ │   └─┬ json-stable-stringify@1.0.1 </tspan>
<tspan x="10" y="3274">    │ │ │     └── jsonify@0.0.0 </tspan>
<tspan x="10" y="3290">    │ │ ├── graceful-fs@4.1.11 </tspan>
<tspan x="10" y="3306">    │ │ ├─┬ gulp-sourcemaps@1.6.0 </tspan>
<tspan x="10" y="3322">    │ │ │ ├── convert-source-map@1.5.0 </tspan>
<tspan x="10" y="3338">    │ │ │ └── through2@2.0.3 </tspan>
<tspan x="10" y="3354">    │ │ ├── is-valid-glob@0.3.0 </tspan>
<tspan x="10" y="3370">    │ │ ├── lazystream@1.0.0 </tspan>
<tspan x="10" y="3386">    │ │ ├── lodash.isequal@4.5.0 </tspan>
<tspan x="10" y="3402">    │ │ ├── merge-stream@1.0.1 </tspan>
<tspan x="10" y="3418">    │ │ ├─┬ mkdirp@0.5.1 </tspan>
<tspan x="10" y="3434">    │ │ │ └── minimist@0.0.8 </tspan>
<tspan x="10" y="3450">    │ │ ├─┬ strip-bom@2.0.0 </tspan>
<tspan x="10" y="3466">    │ │ │ └── is-utf8@0.2.1 </tspan>
<tspan x="10" y="3482">    │ │ ├─┬ strip-bom-stream@1.0.0 </tspan>
<tspan x="10" y="3498">    │ │ │ └── first-chunk-stream@1.0.0 </tspan>
<tspan x="10" y="3514">    │ │ ├── through2@2.0.3 </tspan>
<tspan x="10" y="3530">    │ │ ├─┬ through2-filter@2.0.0 </tspan>
<tspan x="10" y="3546">    │ │ │ ├── through2@2.0.3 </tspan>
<tspan x="10" y="3562">    │ │ │ └── xtend@4.0.1 </tspan>
<tspan x="10" y="3578">    │ │ └── vali-date@1.0.0 </tspan>
<tspan x="10" y="3594">    │ └─┬ ware@1.3.0 </tspan>
<tspan x="10" y="3610">    │   └─┬ wrap-fn@0.1.5 </tspan>
<tspan x="10" y="3626">    │     └── co@3.1.0 </tspan>
<tspan x="10" y="3642">    ├─┬ googleapis@7.1.0 </tspan>
<tspan x="10" y="3658">    │ ├── async@1.5.2 </tspan>
<tspan x="10" y="3674">    │ ├─┬ gapitoken@0.1.5 </tspan>
<tspan x="10" y="3690">    │ │ └─┬ jws@3.0.0 </tspan>
<tspan x="10" y="3706">    │ │   ├─┬ base64url@1.0.6 </tspan>
<tspan x="10" y="3722">    │ │   │ ├─┬ concat-stream@1.4.10 </tspan>
<tspan x="10" y="3738">    │ │   │ │ └─┬ readable-stream@1.1.14 </tspan>
<tspan x="10" y="3754">    │ │   │ │   ├── isarray@0.0.1 </tspan>
<tspan x="10" y="3770">    │ │   │ │   └── string_decoder@0.10.31 </tspan>
<tspan x="10" y="3786">    │ │   │ └─┬ meow@2.0.0 </tspan>
<tspan x="10" y="3802">    │ │   │   ├─┬ camelcase-keys@1.0.0 </tspan>
<tspan x="10" y="3818">    │ │   │   │ └── camelcase@1.2.1 </tspan>
<tspan x="10" y="3834">    │ │   │   ├─┬ indent-string@1.2.2 </tspan>
<tspan x="10" y="3850">    │ │   │   │ └── repeating@1.1.3 </tspan>
<tspan x="10" y="3866">    │ │   │   └── object-assign@1.0.0 </tspan>
<tspan x="10" y="3882">    │ │   └─┬ jwa@1.0.2 </tspan>
<tspan x="10" y="3898">    │ │     ├── base64url@0.0.6 </tspan>
<tspan x="10" y="3914">    │ │     ├── buffer-equal-constant-time@1.0.1 </tspan>
<tspan x="10" y="3930">    │ │     └─┬ ecdsa-sig-formatter@1.0.9 </tspan>
<tspan x="10" y="3946">    │ │       ├── base64url@2.0.0 </tspan>
<tspan x="10" y="3962">    │ │       └── safe-buffer@5.0.1 </tspan>
<tspan x="10" y="3978">    │ ├─┬ google-auth-library@0.9.10 </tspan>
<tspan x="10" y="3994">    │ │ ├── async@1.4.2 </tspan>
<tspan x="10" y="4010">    │ │ ├─┬ gtoken@1.2.2 </tspan>
<tspan x="10" y="4026">    │ │ │ ├─┬ google-p12-pem@0.1.2 </tspan>
<tspan x="10" y="4042">    │ │ │ │ └── node-forge@0.7.1 </tspan>
<tspan x="10" y="4058">    │ │ │ └── mime@1.3.4 </tspan>
<tspan x="10" y="4074">    │ │ ├── lodash.noop@3.0.1 </tspan>
<tspan x="10" y="4090">    │ │ ├─┬ request@2.74.0 </tspan>
<tspan x="10" y="4106">    │ │ │ ├─┬ bl@1.1.2 </tspan>
<tspan x="10" y="4122">    │ │ │ │ └─┬ readable-stream@2.0.6 </tspan>
<tspan x="10" y="4138">    │ │ │ │   └── string_decoder@0.10.31 </tspan>
<tspan x="10" y="4154">    │ │ │ ├── qs@6.2.3 </tspan>
<tspan x="10" y="4170">    │ │ │ └─┬ tough-cookie@2.3.2 </tspan>
<tspan x="10" y="4186">    │ │ │   └── punycode@1.4.1 </tspan>
<tspan x="10" y="4202">    │ │ └── string-template@0.2.1 </tspan>
<tspan x="10" y="4218">    │ ├─┬ request@2.72.0 </tspan>
<tspan x="10" y="4234">    │ │ ├── aws-sign2@0.6.0 </tspan>
<tspan x="10" y="4250">    │ │ ├── aws4@1.6.0 </tspan>
<tspan x="10" y="4266">    │ │ ├─┬ bl@1.1.2 </tspan>
<tspan x="10" y="4282">    │ │ │ └─┬ readable-stream@2.0.6 </tspan>
<tspan x="10" y="4298">    │ │ │   └── string_decoder@0.10.31 </tspan>
<tspan x="10" y="4314">    │ │ ├── caseless@0.11.0 </tspan>
<tspan x="10" y="4330">    │ │ ├─┬ combined-stream@1.0.5 </tspan>
<tspan x="10" y="4346">    │ │ │ └── delayed-stream@1.0.0 </tspan>
<tspan x="10" y="4362">    │ │ ├── extend@3.0.0 </tspan>
<tspan x="10" y="4378">    │ │ ├── forever-agent@0.6.1 </tspan>
<tspan x="10" y="4394">    │ │ ├─┬ form-data@1.0.1 </tspan>
<tspan x="10" y="4410">    │ │ │ └── async@2.3.0 </tspan>
<tspan x="10" y="4426">    │ │ ├─┬ har-validator@2.0.6 </tspan>
<tspan x="10" y="4442">    │ │ │ ├─┬ commander@2.9.0 </tspan>
<tspan x="10" y="4458">    │ │ │ │ └── graceful-readlink@1.0.1 </tspan>
<tspan x="10" y="4474">    │ │ │ └─┬ is-my-json-valid@2.16.0 </tspan>
<tspan x="10" y="4490">    │ │ │   ├── generate-function@2.0.0 </tspan>
<tspan x="10" y="4506">    │ │ │   ├─┬ generate-object-property@1.2.0 </tspan>
<tspan x="10" y="4522">    │ │ │   │ └── is-property@1.0.2 </tspan>
<tspan x="10" y="4538">    │ │ │   └── jsonpointer@4.0.1 </tspan>
<tspan x="10" y="4554">    │ │ ├─┬ hawk@3.1.3 </tspan>
<tspan x="10" y="4570">    │ │ │ ├── boom@2.10.1 </tspan>
<tspan x="10" y="4586">    │ │ │ ├── cryptiles@2.0.5 </tspan>
<tspan x="10" y="4602">    │ │ │ ├── hoek@2.16.3 </tspan>
<tspan x="10" y="4618">    │ │ │ └── sntp@1.0.9 </tspan>
<tspan x="10" y="4634">    │ │ ├─┬ http-signature@1.1.1 </tspan>
<tspan x="10" y="4650">    │ │ │ ├── assert-plus@0.2.0 </tspan>
<tspan x="10" y="4666">    │ │ │ ├─┬ jsprim@1.4.0 </tspan>
<tspan x="10" y="4682">    │ │ │ │ ├── assert-plus@1.0.0 </tspan>
<tspan x="10" y="4698">    │ │ │ │ ├── extsprintf@1.0.2 </tspan>
<tspan x="10" y="4714">    │ │ │ │ ├── json-schema@0.2.3 </tspan>
<tspan x="10" y="4730">    │ │ │ │ └── verror@1.3.6 </tspan>
<tspan x="10" y="4746">    │ │ │ └─┬ sshpk@1.13.0 </tspan>
<tspan x="10" y="4762">    │ │ │   ├── asn1@0.2.3 </tspan>
<tspan x="10" y="4778">    │ │ │   ├── assert-plus@1.0.0 </tspan>
<tspan x="10" y="4794">    │ │ │   ├── bcrypt-pbkdf@1.0.1 </tspan>
<tspan x="10" y="4810">    │ │ │   ├─┬ dashdash@1.14.1 </tspan>
<tspan x="10" y="4826">    │ │ │   │ └── assert-plus@1.0.0 </tspan>
<tspan x="10" y="4842">    │ │ │   ├── ecc-jsbn@0.1.1 </tspan>
<tspan x="10" y="4858">    │ │ │   ├─┬ getpass@0.1.6 </tspan>
<tspan x="10" y="4874">    │ │ │   │ └── assert-plus@1.0.0 </tspan>
<tspan x="10" y="4890">    │ │ │   ├── jodid25519@1.0.2 </tspan>
<tspan x="10" y="4906">    │ │ │   ├── jsbn@0.1.1 </tspan>
<tspan x="10" y="4922">    │ │ │   └── tweetnacl@0.14.5 </tspan>
<tspan x="10" y="4938">    │ │ ├── is-typedarray@1.0.0 </tspan>
<tspan x="10" y="4954">    │ │ ├── isstream@0.1.2 </tspan>
<tspan x="10" y="4970">    │ │ ├── json-stringify-safe@5.0.1 </tspan>
<tspan x="10" y="4986">    │ │ ├─┬ mime-types@2.1.15 </tspan>
<tspan x="10" y="5002">    │ │ │ └── mime-db@1.27.0 </tspan>
<tspan x="10" y="5018">    │ │ ├── node-uuid@1.4.8 </tspan>
<tspan x="10" y="5034">    │ │ ├── oauth-sign@0.8.2 </tspan>
<tspan x="10" y="5050">    │ │ ├── qs@6.1.2 </tspan>
<tspan x="10" y="5066">    │ │ ├── stringstream@0.0.5 </tspan>
<tspan x="10" y="5082">    │ │ └── tough-cookie@2.2.2 </tspan>
<tspan x="10" y="5098">    │ ├── string-template@1.0.0 </tspan>
<tspan x="10" y="5114">    │ └─┬ url@0.11.0 </tspan>
<tspan x="10" y="5130">    │   ├── punycode@1.3.2 </tspan>
<tspan x="10" y="5146">    │   └── querystring@0.2.0 </tspan>
<tspan x="10" y="5162">    ├─┬ humanize-url@1.0.1 </tspan>
<tspan x="10" y="5178">    │ ├─┬ normalize-url@1.9.1 </tspan>
<tspan x="10" y="5194">    │ │ ├─┬ query-string@4.3.4 </tspan>
<tspan x="10" y="5210">    │ │ │ └── strict-uri-encode@1.1.0 </tspan>
<tspan x="10" y="5226">    │ │ └─┬ sort-keys@1.1.2 </tspan>
<tspan x="10" y="5242">    │ │   └── is-plain-obj@1.1.0 </tspan>
<tspan x="10" y="5258">    │ └── strip-url-auth@1.0.1 </tspan>
<tspan x="10" y="5274">    ├── lodash@4.17.4 </tspan>
<tspan x="10" y="5290">    ├─┬ meow@3.7.0 </tspan>
<tspan x="10" y="5306">    │ ├─┬ camelcase-keys@2.1.0 </tspan>
<tspan x="10" y="5322">    │ │ └── camelcase@2.1.1 </tspan>
<tspan x="10" y="5338">    │ ├── decamelize@1.2.0 </tspan>
<tspan x="10" y="5354">    │ ├─┬ loud-rejection@1.6.0 </tspan>
<tspan x="10" y="5370">    │ │ ├─┬ currently-unhandled@0.4.1 </tspan>
<tspan x="10" y="5386">    │ │ │ └── array-find-index@1.0.2 </tspan>
<tspan x="10" y="5402">    │ │ └── signal-exit@3.0.2 </tspan>
<tspan x="10" y="5418">    │ ├── map-obj@1.0.1 </tspan>
<tspan x="10" y="5434">    │ ├── minimist@1.2.0 </tspan>
<tspan x="10" y="5450">    │ ├─┬ normalize-package-data@2.3.8 </tspan>
<tspan x="10" y="5466">    │ │ ├── hosted-git-info@2.4.2 </tspan>
<tspan x="10" y="5482">    │ │ ├─┬ is-builtin-module@1.0.0 </tspan>
<tspan x="10" y="5498">    │ │ │ └── builtin-modules@1.1.1 </tspan>
<tspan x="10" y="5514">    │ │ ├── semver@5.3.0 </tspan>
<tspan x="10" y="5530">    │ │ └─┬ validate-npm-package-license@3.0.1 </tspan>
<tspan x="10" y="5546">    │ │   ├─┬ spdx-correct@1.0.2 </tspan>
<tspan x="10" y="5562">    │ │   │ └── spdx-license-ids@1.2.2 </tspan>
<tspan x="10" y="5578">    │ │   └── spdx-expression-parse@1.0.4 </tspan>
<tspan x="10" y="5594">    │ ├─┬ read-pkg-up@1.0.1 </tspan>
<tspan x="10" y="5610">    │ │ ├─┬ find-up@1.1.2 </tspan>
<tspan x="10" y="5626">    │ │ │ └── path-exists@2.1.0 </tspan>
<tspan x="10" y="5642">    │ │ └─┬ read-pkg@1.1.0 </tspan>
<tspan x="10" y="5658">    │ │   ├── load-json-file@1.1.0 </tspan>
<tspan x="10" y="5674">    │ │   └── path-type@1.1.0 </tspan>
<tspan x="10" y="5690">    │ ├─┬ redent@1.0.0 </tspan>
<tspan x="10" y="5706">    │ │ ├── indent-string@2.1.0 </tspan>
<tspan x="10" y="5722">    │ │ └─┬ strip-indent@1.0.1 </tspan>
<tspan x="10" y="5738">    │ │   └── get-stdin@4.0.1 </tspan>
<tspan x="10" y="5754">    │ └── trim-newlines@1.0.0 </tspan>
<tspan x="10" y="5770">    ├── object-assign@4.1.1 </tspan>
<tspan x="10" y="5786">    ├── pify@2.3.0 </tspan>
<tspan x="10" y="5802">    ├─┬ pinkie-promise@2.0.1 </tspan>
<tspan x="10" y="5818">    │ └── pinkie@2.0.4 </tspan>
<tspan x="10" y="5834">    ├── prepend-http@1.0.4 </tspan>
<tspan x="10" y="5850">    ├─┬ pretty-bytes@3.0.1 </tspan>
<tspan x="10" y="5866">    │ └── number-is-nan@1.0.1 </tspan>
<tspan x="10" y="5882">    ├─┬ repeating@2.0.1 </tspan>
<tspan x="10" y="5898">    │ └── is-finite@1.0.2 </tspan>
<tspan x="10" y="5914">    ├─┬ sort-on@1.3.0 </tspan>
<tspan x="10" y="5930">    │ ├── arrify@1.0.1 </tspan>
<tspan x="10" y="5946">    │ └── dot-prop@2.4.0 </tspan>
<tspan x="10" y="5962">    └─┬ update-notifier@0.6.3 </tspan>
<tspan x="10" y="5978">      ├─┬ boxen@0.3.1 </tspan>
<tspan x="10" y="5994">      │ ├── filled-array@1.1.0 </tspan>
<tspan x="10" y="6010">      │ ├─┬ string-width@1.0.2 </tspan>
<tspan x="10" y="6026">      │ │ ├── code-point-at@1.1.0 </tspan>
<tspan x="10" y="6042">      │ │ └── is-fullwidth-code-point@1.0.0 </tspan>
<tspan x="10" y="6058">      │ └── widest-line@1.0.0 </tspan>
<tspan x="10" y="6074">      ├─┬ configstore@2.1.0 </tspan>
<tspan x="10" y="6090">      │ ├── dot-prop@3.0.0 </tspan>
<tspan x="10" y="6106">      │ ├── os-tmpdir@1.0.2 </tspan>
<tspan x="10" y="6122">      │ ├─┬ osenv@0.1.4 </tspan>
<tspan x="10" y="6138">      │ │ └── os-homedir@1.0.2 </tspan>
<tspan x="10" y="6154">      │ ├── uuid@2.0.3 </tspan>
<tspan x="10" y="6170">      │ ├─┬ write-file-atomic@1.3.3 </tspan>
<tspan x="10" y="6186">      │ │ ├── imurmurhash@0.1.4 </tspan>
<tspan x="10" y="6202">      │ │ └── slide@1.1.6 </tspan>
<tspan x="10" y="6218">      │ └── xdg-basedir@2.0.0 </tspan>
<tspan x="10" y="6234">      ├── is-npm@1.0.0 </tspan>
<tspan x="10" y="6250">      ├─┬ latest-version@2.0.0 </tspan>
<tspan x="10" y="6266">      │ └─┬ package-json@2.4.0 </tspan>
<tspan x="10" y="6282">      │   ├── registry-auth-token@3.2.0 </tspan>
<tspan x="10" y="6298">      │   └── registry-url@3.1.0 </tspan>
<tspan x="10" y="6314">      └── semver-diff@2.1.0</tspan>
</text>
</svg>
